<svg xmlns="http://www.w3.org/2000/svg" xmlns:xlink="http://www.w3.org/1999/xlink" viewBox="0 0 3091.85 2322.76"><defs><linearGradient id="linear-gradient" y1="1161.38" x2="3091.85" y2="1161.38" gradientUnits="userSpaceOnUse"><stop offset="0.11" stop-color="#e51eb6"/><stop offset="0.13" stop-color="#dd1db4"/><stop offset="0.37" stop-color="#9b13a1"/><stop offset="0.58" stop-color="#660b92"/><stop offset="0.76" stop-color="#410587"/><stop offset="0.91" stop-color="#290180"/><stop offset="1" stop-color="#21007e"/></linearGradient><linearGradient id="linear-gradient-2" x1="313.27" y1="1226.53" x2="2596.94" y2="1091" gradientUnits="userSpaceOnUse"><stop offset="0" stop-color="#d200b6"/><stop offset="0.06" stop-color="#b200b1"/><stop offset="0.16" stop-color="#80a"/><stop offset="0.25" stop-color="#6700a5"/><stop offset="0.34" stop-color="#5000a1"/><stop offset="0.43" stop-color="#42009f"/><stop offset="0.5" stop-color="#3d009e"/><stop offset="1" stop-color="#7300c3"/></linearGradient><linearGradient id="linear-gradient-3" x1="673.88" y1="1177.51" x2="2446.99" y2="1177.51" gradientUnits="userSpaceOnUse"><stop offset="0" stop-color="#a513e8"/><stop offset="0.16" stop-color="#6909c9"/><stop offset="0.28" stop-color="#4202b5"/><stop offset="0.34" stop-color="#3300ad"/><stop offset="0.41" stop-color="#3e02af"/><stop offset="0.54" stop-color="#5a09b3"/><stop offset="0.7" stop-color="#8813b9"/><stop offset="0.89" stop-color="#c821c3"/><stop offset="0.99" stop-color="#ed29c8"/></linearGradient><linearGradient id="linear-gradient-4" x1="752.78" y1="1154.96" x2="2174.69" y2="1199" xlink:href="#linear-gradient"/></defs><title>bg1_2_LCO</title><g id="Layer_2" data-name="Layer 2"><g id="Layer_12" data-name="Layer 12"><path d="M879.06,2204.68c180.27-9.88,340.15,11.9,520.51,54.25,202.27,47.5,425.64,97.1,630,34.12,173.23-53.38,289.75-212,462.53-268.53,117.15-38.31,248-15.68,364.35-56.25,126.67-44.15,222.15-166.74,233.93-300.36,19.74-223.76-169.79-408.28-230.45-624.56-37.27-132.89-25.05-271.75,32.52-396.28,49.35-106.74,140.23-227.51,128.36-354.34C2997,38.46,2731.71-10.08,2520.69,1.58,2277,15,2074.37,113.72,1844.44,173.79c-209.64,54.77-419.61,36.79-627.21-16.83C1046.56,112.87,872.33,30.6,695.7,18.26c-268-18.72-509,192.62-627.48,416.06-63.31,119.34-84.76,259.21-55,391.42,31.79,141.42,136.61,244,193,373.66,65.81,151.32,37.5,324.15,28,483.33-8.95,150.72,19.84,326.69,130.64,438.17,120.4,121.14,313.59,99.79,468.36,86.94Q856.41,2205.92,879.06,2204.68Z" fill="url(#linear-gradient)"/><path d="M969.28,2063.54c155.88-8.55,294.13,10.28,450.09,46.91,174.9,41.07,368.06,84,544.79,29.5,149.8-46.16,250.55-183.35,400-232.2,101.3-33.13,214.42-13.56,315.06-48.64,109.54-38.17,192.1-144.18,202.29-259.73,17.06-193.49-146.83-353-199.28-540.06-32.23-114.91-21.66-235,28.12-342.67,42.67-92.3,121.26-196.74,111-306.4-20.58-219.88-250-261.85-432.48-251.77-210.73,11.65-385.94,97-584.76,148.92-181.28,47.36-362.85,31.81-542.36-14.56-147.59-38.12-298.24-109.26-451-119.93C579,156.72,370.62,339.47,268.13,532.68c-54.75,103.2-73.29,224.14-47.58,338.47C248,993.44,338.68,1082.1,387.46,1194.26c56.9,130.85,32.42,280.29,24.25,417.93-7.74,130.34,17.15,282.5,113,378.9,104.12,104.75,271.17,86.29,405,75.18Q949.68,2064.6,969.28,2063.54Z" fill="url(#linear-gradient-2)"/><path d="M1103.37,1756.76c104.93,4,196.34,25.27,298.49,59.54,114.57,38.44,241.25,79.23,363,53.8,103.21-21.55,179.26-107.13,282.36-130.51,69.92-15.86,144.45,4.32,214-12.89,75.75-18.72,137.66-84.55,151.7-161.3,23.52-128.51-76.27-245.61-99.7-374.14-14.41-79,.17-158.72,40.24-227.72,34.35-59.15,93.5-124.18,93.48-198.27,0-148.54-151.07-191-273.91-195.63-141.85-5.37-264.52,40.82-400.92,63.19-124.36,20.39-245-1.37-362.31-43.64-96.46-34.76-192.91-91.81-294.52-108.5-154.17-25.32-305.15,84-385.87,207-43.11,65.69-63.08,145.53-53,223.71C687.22,995,742.38,1060.08,768,1138.24c29.93,91.19,4.2,189.74-9.88,281.41-13.32,86.8-6.16,190.26,52,260.81,63.18,76.66,176.21,74.73,266.54,75.66Q1090.18,1756.26,1103.37,1756.76Z" fill="url(#linear-gradient-3)"/><path d="M1223.08,1540.33c69.84,11.76,129.15,33.87,194.53,65.62,73.32,35.61,154.53,73.85,238.18,67.36,70.9-5.5,129.16-56.18,200.16-62.92,48.14-4.56,96.25,15.37,144.29,9.88,52.28-6,99.39-44.67,115.41-94.8,26.84-83.93-29.8-170.88-34.37-258.88-2.81-54.07,13.83-106.17,46.6-148.86,28.08-36.6,73.27-75,79.66-124.55,12.8-99.37-84.56-140.81-166.33-154.53-94.42-15.85-180.47,4.45-273.65,7.63-85,2.89-163.76-22.09-238.59-60.5-61.52-31.58-121.11-78.08-187.64-98-100.94-30.26-211.39,29.85-276,105.15-34.51,40.22-54.77,91.9-54.79,145.06,0,56.87,31.26,105.14,41.67,159.64,12.15,63.59-13.58,127.29-30.92,187.39-16.41,56.92-20.56,126.74,12.24,179,35.64,56.74,111.42,65.22,171.76,73.64Q1214.3,1538.86,1223.08,1540.33Z" fill="url(#linear-gradient-4)"/></g></g></svg>